<svg width="100" height="100" xmlns="http://www.w3.org/2000/svg">

<path fill="#678" d="M 50 0 L 14.645 14.645 L 0 50 L 14.645 85.355 L 50 100 L 85.355 85.355 L 100 50 L 85.355 14.645 L 50 0"/>

<path fill="#cde" d="M 50 0 L 14.645 14.645 L 0 50 L 35.355 64.645 L 50 100 L 64.645 64.645 L 100 50 L 85.355 14.645 L 50 0 L 75 20 L 80 48 L 50 60 L 20 48 L 25 20 L 50 0"/>

<path fill="#3df" d="M 50 50 L 42 44 L 50 30 L 58 44 L 50 50"/>

<path fill="#89a" d="M 0 50 L 30 80 L 40 95.86 L 50 100 L 35.355 64.645 L 0 50"/>

<path fill="#89a" d="M 100 50 L 70 80 L 60 95.86 L 50 100 L 64.645 64.645 L 100 50"/>

<path fill="#8ab" d="M 50 55 L 20 48 L 50 60 L 80 48 L 50 55"/>

</svg>
